<svg width="360" height="320" viewBox="0 0 360 320" fill="none" xmlns="http://www.w3.org/2000/svg">
  <ellipse cx="182" cy="292" rx="109" ry="16" fill="#7E1E2C" fill-opacity=".18"/>
  <path d="M83 122c-15-25-6-57 18-67 22 10 35 34 29 59" fill="#7F2633"/>
  <path d="M277 122c15-25 6-57-18-67-22 10-35 34-29 59" fill="#7F2633"/>
  <path d="M92 103c-6-15-1-29 10-35 10 6 17 18 16 31" fill="#F3B9A1"/>
  <path d="M268 103c6-15 1-29-10-35-10 6-17 18-16 31" fill="#F3B9A1"/>
  <path d="M286 177c0 67-41 112-105 112S75 244 75 177C75 113 116 79 181 79s105 34 105 98Z" fill="#FFE9CF"/>
  <path d="M93 135c20-38 51-56 91-56 42 0 73 19 91 58-25-15-49-22-72-22-43 0-76 18-110 20Z" fill="#B73545"/>
  <path d="M91 142c15-23 37-35 63-35 0 32-18 51-48 55l-15-20ZM272 142c-15-23-37-35-63-35 0 32 18 51 48 55l15-20Z" fill="#C94350"/>
  <ellipse cx="137" cy="170" rx="30" ry="27" fill="#FFF8ED"/>
  <ellipse cx="226" cy="170" rx="30" ry="27" fill="#FFF8ED"/>
  <ellipse cx="141" cy="171" rx="6.5" ry="8" fill="#3B2A28"/>
  <ellipse cx="222" cy="171" rx="6.5" ry="8" fill="#3B2A28"/>
  <circle cx="143" cy="168" r="2" fill="white"/>
  <circle cx="224" cy="168" r="2" fill="white"/>
  <ellipse cx="181" cy="194" rx="11" ry="8" fill="#5C3433"/>
  <path d="M181 201c-1 9-14 11-18 4M181 201c1 9 14 11 18 4" stroke="#5C3433" stroke-width="4" stroke-linecap="round"/>
  <ellipse cx="119" cy="198" rx="13" ry="7" fill="#EF8B83" fill-opacity=".35"/>
  <ellipse cx="244" cy="198" rx="13" ry="7" fill="#EF8B83" fill-opacity=".35"/>
  <path d="M92 236c-18 4-33 17-39 35 18 5 37-2 51-17" fill="#A62D3D"/>
  <path d="M270 236c18 4 33 17 39 35-18 5-37-2-51-17" fill="#A62D3D"/>
  <rect x="107" y="216" width="149" height="84" rx="17" fill="white"/>
  <rect x="114" y="223" width="135" height="70" rx="12" fill="#FFF7EC" stroke="#EFD9C9" stroke-width="2"/>
  <path d="M181.5 226v64M117 258h129" stroke="#EBCABD" stroke-width="1.5" stroke-dasharray="5 5"/>
  <g stroke="#B83243" stroke-width="5" stroke-linecap="round" stroke-linejoin="round">
    <path d="m162 234-4 8M181 232v10M199 234l4 8"/>
    <path d="M151 249c19-5 41-5 61 0l-3 10M154 249l3 10"/>
    <path d="M165 264c10 5 22 5 32 0-5 5-10 8-16 10v12M162 278h38"/>
  </g>
  <path d="M110 237c-12-7-25-3-29 9 6 10 17 14 29 10M253 237c12-7 25-3 29 9-6 10-17 14-29 10" fill="#B73545"/>
  <path d="M296 80c0-13 10-23 23-23" stroke="white" stroke-opacity=".65" stroke-width="4" stroke-linecap="round"/>
  <path d="M306 81h16M297 68l11-11" stroke="white" stroke-opacity=".65" stroke-width="4" stroke-linecap="round"/>
  <circle cx="49" cy="132" r="7" fill="#FFD88A"/>
  <circle cx="312" cy="143" r="5" fill="#FFD88A"/>
</svg>
